<?xml version="1.0" encoding="UTF-8"?>
<!DOCTYPE svg PUBLIC "-//W3C//DTD SVG 1.1//EN" "http://www.w3.org/Graphics/SVG/1.1/DTD/svg11.dtd">
<!-- Creator: CorelDRAW X7 -->
<svg xmlns="http://www.w3.org/2000/svg" xml:space="preserve" width="2.54mm" height="2.5138mm" version="1.1" style="shape-rendering:geometricPrecision; text-rendering:geometricPrecision; image-rendering:optimizeQuality; fill-rule:evenodd; clip-rule:evenodd"
viewBox="0 0 242 239"
 xmlns:xlink="http://www.w3.org/1999/xlink">
 <defs>
  <style type="text/css">
   <![CDATA[
    .fil0 {fill:#332C2B}
   ]]>
  </style>
 </defs>
 <g id="Layer_x0020_1">
  <metadata id="CorelCorpID_0Corel-Layer"/>
  <path class="fil0" d="M51 179c-1,1 -1,1 -2,1 -2,-1 -4,-7 0,-5 0,0 0,1 1,1 0,1 1,3 1,3zm-19 13c0,-1 0,-1 -1,-1 -2,-2 -3,-2 -3,-4 1,0 2,-1 3,1 1,1 5,4 7,4 0,-2 -1,-2 -2,-2 -1,0 -2,-1 -3,-2 0,0 0,-1 -1,-1 0,0 -4,-2 -2,-3 2,-1 2,1 3,1 0,1 1,1 1,2 1,0 2,1 3,1 0,-1 -4,-5 -4,-5 -1,-1 -1,-2 0,-2 1,0 0,0 1,0 0,0 0,0 0,0l5 6c1,0 1,0 1,0 1,1 1,2 2,2 0,0 1,0 1,0 0,0 0,-1 0,-1 0,-1 0,-1 0,-1 -1,-2 -1,0 -2,-1l-2 -4c-1,-1 -2,-1 -2,-3 0,-1 1,-1 2,-1 0,0 0,2 0,2 1,0 1,0 1,1 1,1 0,1 1,1 3,2 4,3 5,6 2,0 4,0 5,-1 18,18 43,30 70,30 47,0 86,-33 95,-77 1,-1 1,-2 2,-3 1,-1 1,-1 1,-2 1,0 1,0 1,-1l6 -9c1,-1 1,-1 1,-2l6 -9c1,-1 2,-5 3,-6l4 -9c1,-1 2,-2 2,-3 -1,0 -1,0 -1,1 0,0 -1,0 -1,1 -4,5 -9,10 -13,16 -1,1 -2,2 -3,4l-6 9c0,-3 0,-5 0,-7 0,-54 -43,-97 -97,-97 -54,0 -97,43 -97,97 0,19 6,37 16,53l-1 0c-1,1 -1,1 -2,1l-5 4c-1,0 -1,1 -1,1l-1 0c0,0 0,0 0,0 -1,1 -1,1 -2,2 -5,2 -2,3 -5,3 -1,1 0,1 0,2l4 4c4,2 3,4 6,4 0,0 0,0 1,-1l0 0c-1,0 -1,-1 -2,-1zm55 -75l2 0c1,-3 1,-3 -1,-6 0,0 0,0 -1,0 -1,-1 -3,-2 -3,0 0,1 0,1 1,2 2,1 1,2 2,4zm0 -9c1,1 3,1 4,5 1,1 1,1 1,2 2,0 3,-1 4,-1 0,-3 -1,-3 -3,-5 -2,-1 -3,-4 -5,-2 0,0 -1,0 -1,1zm53 -48l3 -3c-1,-1 -1,-1 -3,-1 -3,0 -5,1 -6,0 -1,0 -1,0 -2,0 0,0 -1,0 -1,0 -1,0 0,2 0,2 2,2 7,3 9,2zm-7 17c4,1 3,-1 4,-3 1,-2 3,-6 3,-7 0,-1 0,-4 -1,-4 -1,-1 -2,-1 -2,-1 -1,1 -1,3 -1,4l-2 7c-1,1 -1,2 -1,4zm57 27c1,0 0,-2 0,-5 0,-2 1,-2 1,-4 -1,-1 -3,-1 -5,0 -1,0 -2,0 -3,1 0,0 0,2 1,3 0,2 3,4 4,5 1,1 2,1 2,0zm-98 2c0,0 1,0 2,0 0,1 0,1 0,1 2,1 2,1 3,3 0,0 0,0 0,0 0,0 0,0 0,1l2 2c0,0 -1,0 0,0 1,0 0,1 1,0l1 -1c0,0 0,0 0,0 0,0 0,0 1,0 0,0 0,0 0,0 0,0 0,0 1,-1 0,0 -1,-2 -1,-2 -1,-2 -1,-1 -2,-2l-1 0c-1,-1 -1,-1 -1,-2 -1,-2 0,-1 -2,-2 0,0 1,-4 -1,-2l-3 2c0,1 0,1 0,3zm36 133c0,0 0,0 0,0 0,1 3,0 3,0l1 0c0,0 0,0 0,0l0 -2c0,-1 0,-2 0,-2 -1,-5 -1,-10 -1,-15 -1,0 -2,0 -3,0 -2,0 -1,1 -1,2 0,2 0,4 0,6 0,2 0,7 1,9l0 2zm45 -140c0,0 0,0 -1,0 0,1 0,1 0,1 -1,0 -1,0 -2,0 -1,-1 -2,-3 -3,-3 -1,4 0,3 0,6 1,3 3,8 6,7 1,0 5,-3 4,-5 0,-1 -3,-5 -4,-6zm-51 -34c0,1 0,1 1,1 0,1 0,1 0,1 2,2 3,2 5,4 1,2 1,3 2,5 2,0 4,-9 4,-13 -3,0 -6,1 -8,1l-4 1zm-67 151c0,2 -1,4 0,5 0,0 0,0 1,1 1,1 6,3 8,1 2,-1 2,-2 3,-4l4 -6c0,-1 1,-2 1,-2 0,-1 1,-1 1,-2 0,0 0,0 0,0l-3 -2c-1,0 -1,1 -3,4l-4 7c-1,2 -3,3 -4,1 0,0 0,-1 -1,-2 0,0 -3,-1 -3,-1zm90 3l0 0 -1 -1c0,0 1,0 0,0 -1,-1 -4,0 -4,1l4 16c0,1 0,1 1,2 1,0 11,-2 11,-2 0,-1 0,-4 -1,-4 -1,0 0,0 -1,0 -1,0 -2,0 -3,1 -1,0 -2,0 -3,0 -1,-1 -3,-11 -3,-13zm-96 -84c-1,1 -2,2 -3,2 -3,3 -7,6 -10,10 -1,1 -1,1 -1,3 0,1 0,1 0,1 2,2 6,-2 8,-3 2,-1 4,-3 5,-4 1,0 3,-1 3,-3 0,-5 -2,-5 -2,-6zm150 -105c0,-1 -1,-2 -2,-2l0 -1c0,0 -1,0 -1,0 -1,-1 -1,-1 -2,-2 -2,-2 -2,-1 -3,-2 -1,-1 -1,-1 -2,-2 0,0 -1,0 -1,-1 -1,1 -1,1 -2,2 0,0 0,0 -1,1 1,1 4,3 4,4 0,0 -2,2 -2,3 0,0 0,0 -1,1l-4 5c0,0 0,1 -1,1 -1,2 -1,2 0,3l2 1c2,0 3,-3 4,-4l4 -5c0,-1 1,-2 2,-3 0,0 0,0 1,1l1 1c0,0 1,0 1,1 1,0 1,0 1,0 1,0 1,0 1,0l0 -1c1,-1 1,-1 1,-1zm-67 104c0,-1 0,-1 -1,-1l0 -2 0 1c0,-1 0,-1 -1,-2l0 -1 0 1c-3,-2 -9,-6 -11,-8 0,-1 0,-1 -1,-1 0,0 0,0 -1,-2l0 -1c-2,-2 -5,-5 -6,-6 -1,-2 -2,-1 -3,-2 -2,-1 -2,0 -3,-1 0,0 0,0 1,-1 2,-1 3,-1 5,-1 0,1 2,2 2,2 2,0 1,-1 4,-1 0,0 1,2 2,2 1,0 5,-2 6,-3 1,-1 2,-2 3,-3 2,-1 1,0 3,-1 1,0 1,0 2,0 1,-1 3,-1 4,-1l2 -1 0 -1c0,0 0,0 0,0l0 0c0,0 0,0 0,0 0,0 0,0 0,0 1,0 2,0 2,0 1,0 2,-1 2,-1 0,0 0,0 0,0 1,0 1,0 2,-1l0 0 -1 0c0,0 -1,0 -2,1 0,0 -1,0 -1,0 -1,0 -1,0 -2,1 -1,0 -1,0 -2,0l-4 1c0,0 -1,0 -2,0 -1,1 -1,0 -2,1 -3,1 -2,0 -4,2 -1,1 -2,2 -3,2 -1,1 -2,3 -4,0 -1,-1 -2,-4 -1,-5l3 -1c2,-1 3,-2 5,-1 3,2 4,0 6,-1 0,0 1,0 1,0 0,-1 -1,0 0,-1 0,0 0,0 0,0 1,0 1,0 1,0 1,-1 2,-2 3,-2 1,1 1,1 2,1 2,1 1,1 2,1 1,-2 -1,-3 -2,-3 -2,-1 0,-1 -3,-1 -3,0 -1,1 -4,2l-2 2c-1,0 -2,1 -3,1 0,-1 0,-3 1,-4 0,0 0,0 1,0 3,-2 1,-1 4,-3 1,0 1,0 2,0 1,0 0,0 1,-1 1,0 1,0 3,0 1,2 -1,1 3,3 1,1 2,2 5,1 1,0 1,0 2,0l4 -4c2,-1 4,-5 4,-7 0,-3 0,-3 0,-6 -2,-6 -4,-8 -1,-6 4,1 3,1 3,3l1 1c1,2 2,5 3,7 0,0 0,0 0,0l0 0c0,0 0,0 0,1 0,0 0,1 0,1 0,1 0,1 0,1 1,1 1,2 1,3 1,1 2,3 2,5 0,2 1,5 1,7 0,1 1,2 1,3 0,1 0,1 0,2 0,1 1,1 1,2 0,1 0,1 0,2 1,0 1,1 1,1 0,0 0,0 0,0 0,1 1,1 1,1 0,1 1,1 2,1 1,0 1,0 1,0 0,-1 1,-1 1,-1l2 -2 0 1c0,0 0,0 1,0l0 0 0 1 0 0 0 0c0,0 0,0 0,0 1,0 1,0 1,0l3 8c2,4 0,2 1,5 0,2 2,5 -1,7 -1,1 -3,0 -4,1 0,0 0,0 0,0l1 1c0,1 1,1 1,1 1,1 2,2 3,3 2,2 2,2 4,3l1 1c0,1 1,2 1,3 -2,0 -7,0 -9,0 -1,0 -2,1 -2,2l-2 1c0,1 0,1 -1,1 0,0 1,0 0,0 -2,-2 0,-5 -1,-8 -1,0 -1,0 -1,0 -6,-5 -4,-3 -10,-6l-4 -1c-2,0 -5,0 -7,0 -1,0 -1,0 -2,0 -2,1 -2,1 -3,1l-1 0 -3 1c-1,0 -1,1 -2,2 -1,0 -1,1 -1,1 0,1 0,1 0,1 0,0 0,1 0,1 1,1 1,2 2,4 2,2 5,4 7,7l5 5c0,1 1,2 2,4 0,0 0,0 0,1 1,0 1,1 2,2 1,3 3,10 2,14 -1,1 -1,3 -3,4 0,1 0,2 -1,2 -1,1 -2,2 -3,2 -1,0 -1,1 -2,1 -3,1 -8,1 -11,0 -2,0 -4,-1 -5,-2l-5 -2c-1,-1 -1,-1 -2,-1l-3 -1c-1,-3 3,-6 3,-9 -1,-1 -1,-1 -2,0 0,0 -1,0 -1,1 0,1 1,2 -1,3 0,1 -1,2 -2,2 -1,0 -3,-1 -3,-1 -1,-1 -2,-2 -2,-3 -3,-2 -8,-2 -12,-2 -3,0 -5,1 -7,3 -1,2 -1,2 -3,4 -1,1 -1,2 -2,3l-3 2c0,0 -1,1 -3,0 -2,-2 -1,-5 -1,-7 0,-3 1,-3 2,-5 1,0 1,-1 1,-1 1,-2 3,-4 4,-6l2 -2c0,-1 1,-2 1,-3 1,-1 1,-2 2,-2l1 -2c2,-3 5,-5 9,-3 1,0 1,0 2,0 0,1 0,1 1,1 2,1 3,2 3,4 -1,1 -1,3 -1,4 0,1 -1,2 -1,3l3 0c0,-1 0,-1 0,-3 0,-1 0,-2 0,-3 0,0 0,0 1,-1 1,0 2,1 3,2 0,2 -1,3 0,5 1,0 2,0 2,-1 0,-1 0,-1 0,-2 0,0 0,-1 0,-1 0,-1 0,-1 5,0 2,2 -2,4 -1,7 0,1 0,1 1,1 3,-1 1,-6 4,-8 0,0 0,0 0,0 3,-2 9,-1 12,0 1,2 4,4 6,5 0,0 1,0 2,0 0,-3 -4,-4 -5,-5 0,0 0,0 -1,-1l-1 0c0,0 0,0 0,0 0,-1 0,0 0,-1 -1,0 -1,0 -1,0 -3,-1 -2,-1 -4,-1 -3,0 -3,0 -5,0 -6,0 -7,2 -13,-1 -1,0 -2,0 -3,-1 -1,-1 -1,-1 -2,-2 -2,-1 -3,-2 -6,-3l0 -1c-2,0 -5,0 -6,0 -3,1 -2,2 -4,3 -2,0 -2,-1 -3,-2l-4 -2c0,-2 2,-4 4,-6l4 -3c1,-1 3,-2 4,-3 1,0 1,0 1,0 1,-1 5,-2 7,-2l3 -2c2,0 9,0 11,1 1,0 1,0 2,0l0 0 1 0c1,0 2,0 3,1 0,0 1,0 1,0 0,0 0,0 0,0 0,0 0,0 0,0 0,-1 0,0 0,0zm1 -1l0 1c0,0 0,1 0,1 0,0 0,1 1,1 1,1 1,2 2,2 0,0 1,1 1,1 0,0 0,0 0,0 0,0 0,-1 1,-1 0,-1 0,-2 1,-2 1,-1 2,-2 3,-2l0 0c1,-1 2,-1 4,-1 1,-1 1,-1 3,-1 0,0 1,0 2,0 2,0 5,0 7,0l0 0 5 1 0 0c0,0 0,0 0,-1 -4,0 -5,0 -6,-1 0,-1 -1,-1 -2,-2 0,0 0,0 -1,0 0,0 0,0 0,0 0,0 -1,0 -1,-1l0 0c0,0 0,0 0,0 -1,0 -2,0 -3,1 -1,0 -1,1 -2,1 -1,0 -2,0 -2,0 0,1 -1,1 -1,1 0,0 0,0 -1,0 0,-1 -1,-1 -1,-1l0 0 -5 -1c-1,0 -1,0 -2,0 0,1 -1,2 -2,3 0,0 0,1 0,1l0 0c0,0 -1,0 -1,0l0 0zm-118 -6l-4 0 0 -8 -1 0c0,0 0,0 0,0 -1,0 -2,0 -2,0 -1,2 0,6 0,8 -1,0 -3,0 -4,0 -1,-2 0,-6 -1,-8l-3 0c0,1 0,11 0,12l19 0c0,-1 0,-13 0,-13 -1,0 -3,0 -3,0 -1,0 0,7 -1,9zm198 -64c0,0 3,0 4,0 3,-1 1,1 -1,3 -1,1 0,1 -1,1 -1,0 0,0 -1,-1l0 -1c0,0 0,0 0,0 0,0 0,0 0,0l-1 -1c0,-1 0,0 0,-1zm-1 15c1,-1 1,-1 1,-1l2 -3c1,-1 1,-2 2,-2 1,-2 1,-1 1,-2 1,-1 1,-1 1,-1 2,-3 5,-6 6,-8l0 0c-1,-1 -2,-2 -2,-3 -2,0 -4,1 -6,1 -2,0 -5,0 -7,1l-8 0c0,1 0,1 0,2l2 2c1,1 3,0 5,0l0 1c0,0 0,0 0,0 0,0 1,0 1,0l1 2c2,4 2,3 1,4 -1,1 0,1 -1,1 0,1 -1,1 -1,2 0,1 0,1 1,2l1 2zm-92 20l5 -4 2 -2c1,-2 5,-3 5,-3 1,0 0,0 1,0 0,0 1,0 1,0 1,0 2,0 2,-1 0,0 1,-3 0,-3 -1,-1 -5,1 -6,1l-8 5c-1,1 -3,2 -4,3l-7 4c-3,1 -6,3 -10,3 -1,1 -2,0 -3,1 0,1 1,1 2,2 2,2 1,3 6,1 1,0 3,-1 4,0 1,0 2,2 4,1 0,0 0,0 0,0 0,0 0,0 0,0 1,-2 0,-4 1,-6 0,-1 4,-2 5,-2zm9 -92l1 6c0,0 0,0 0,0l-4 0c0,-1 2,-6 3,-6zm-11 13c6,0 4,0 6,-4l8 0c0,1 1,4 1,5l5 0c0,-1 0,-1 -1,-1l-1 -5c0,-1 -1,-3 -2,-5 0,-1 -1,-2 -1,-2 0,-2 -1,-6 -2,-7 0,0 -3,0 -4,0l-2 5c0,1 0,1 -1,1 -1,3 -3,5 -4,8 0,1 -2,3 -2,5zm56 6c-1,1 -2,0 -3,-1 -2,-1 0,-1 1,-3 1,0 1,-1 2,-1 1,0 0,0 1,0 0,1 0,0 0,1l-1 4zm-14 2l2 1c0,0 1,1 2,1 0,0 2,-2 3,-3 1,0 1,1 2,1l5 3 0 4c0,0 0,0 0,0 0,0 0,1 1,1l1 1c2,1 2,-1 2,-5 0,-2 0,-4 0,-6 0,0 0,-1 0,-2l1 -8c-1,0 -3,-1 -3,-1 -1,0 -2,1 -2,1 -3,3 -8,7 -11,9l-3 2c0,1 0,0 0,1zm-143 59c0,1 -1,2 -1,3l-1 1c-1,0 -2,-2 -3,-2 0,-1 -1,-1 -1,-1 -1,-1 1,-1 2,-1 2,0 2,0 4,0zm4 -1c6,0 4,0 5,-3 1,-2 0,-2 -2,-2 -2,1 -3,1 -5,1 -1,0 -1,0 -2,0l-8 1c0,0 -1,1 -1,1 -1,0 -2,0 -2,0 -1,0 -1,3 -1,3 0,0 0,0 0,1l1 0c0,1 0,1 1,1l4 3c2,2 7,6 8,7 1,1 1,2 2,1 1,0 0,0 1,-2 0,0 0,-1 0,-2l-3 -2c0,0 0,0 0,0 0,-1 1,-7 2,-8zm75 133c-2,-1 -2,-1 -3,-1 -2,0 -1,0 -2,1 0,0 0,0 0,0 0,0 0,0 0,1l-3 8c0,0 0,0 0,0 0,0 0,0 0,1 0,0 0,1 -1,2 -1,0 -1,1 -2,1 -1,0 -2,0 -3,-1 -2,-1 -2,-4 -1,-6l2 -5c0,-1 1,-4 1,-5 -1,0 -1,0 -2,-1 -1,0 -1,0 -2,0l0 1c-1,1 0,2 -1,3 -1,1 -1,1 -1,2 0,1 0,1 0,1 -1,1 -1,1 -1,2 0,2 -2,4 -1,6 2,6 9,8 13,6 3,-3 3,-4 4,-7l2 -5c0,-1 1,-3 1,-4zm-9 -207l0 1c1,0 0,0 1,0 0,1 0,1 0,1 2,2 2,2 2,3 -1,0 -1,0 -2,0 0,0 -1,0 -1,0 0,1 0,0 -1,0 0,0 0,0 0,0l1 -5zm-7 15c1,0 5,0 5,-1l0 -2c0,-1 0,-1 0,-2 1,0 6,-2 8,-2 2,2 1,4 5,3l2 -1c0,-1 -2,-2 -3,-4l-10 -12c-1,-1 -2,0 -3,0 -1,1 -1,1 -1,2l-2 13c0,1 0,1 0,3 0,1 -1,2 -1,3zm-58 25c0,1 7,6 8,7l1 0c0,0 0,0 0,0l6 5c0,-1 1,-2 2,-3l3 -4c0,0 1,-1 1,-1 1,-2 2,-2 2,-3 -1,-1 0,0 -1,-1 -2,-2 -2,-1 -3,0 0,0 0,0 -1,1 0,0 -1,1 -1,1 0,1 -2,4 -3,4 0,0 -1,-1 -1,-1 -2,-2 -2,-1 1,-5 0,-1 2,-2 2,-3 0,0 0,0 0,0 0,0 -1,-1 -1,-1 -3,-2 -1,-2 -3,0l-4 5c-1,0 -2,-2 -3,-2 0,-1 0,-1 1,-1l1 -2c1,-1 1,-2 2,-2 2,-2 2,-2 0,-3 0,-1 -1,-1 -1,-1 -1,0 -4,4 -5,5 0,0 -3,4 -3,5zm142 164c0,-1 1,-1 2,-1l6 -3 -2 -3c-2,0 -4,1 -5,2 -1,0 -1,0 -1,0 -8,5 -7,2 -4,8l3 5c0,1 0,1 0,1l2 5c1,0 1,1 1,1 1,1 1,0 1,1l10 -6c1,0 1,0 2,0 0,-1 -1,-1 -2,-4 0,0 -1,0 -1,1 -1,0 -1,0 -3,1l-2 1c-1,1 -2,1 -2,1l-2 -2c0,-1 0,-1 0,-1l7 -4c0,-1 0,-1 0,-1 0,-1 0,0 0,-1 -1,-1 -1,-1 -1,-2 -1,1 -2,1 -2,1 -1,1 -1,1 -2,1 -1,1 -3,2 -4,2 0,0 0,0 0,-1 -1,0 -1,0 -1,0 0,-2 0,-1 0,-2zm21 -13c1,-1 1,-1 2,-1 2,-3 3,-3 2,-4 -2,-2 -1,-3 -3,-1 -1,0 -1,1 -1,1l-4 3c-5,4 -5,2 -1,7l7 8c0,1 0,1 0,1 2,3 1,3 5,0l4 -3c1,-1 2,-2 3,-3 1,-1 0,-1 0,-2l-2 -1c0,0 -1,1 -2,1l-4 4c0,0 0,0 0,0 -1,0 -1,0 -1,0 -1,0 -1,0 -1,0 0,-1 0,-1 0,-1 -2,-2 -2,-1 0,-3l2 -2c0,0 0,0 0,0l3 -2c0,0 -2,-3 -2,-3 -1,0 -6,5 -7,5 0,0 -2,-2 -2,-3l2 -1zm-23 -122c0,0 1,-2 3,-3 0,-1 1,-1 1,-2 1,-1 4,-3 6,-3 3,-1 9,-1 12,0 2,0 3,2 4,2 0,0 1,-1 2,-2 1,-1 0,-1 1,-2 0,-1 0,-2 0,-3 -1,0 -1,0 -1,-1 -2,-1 -6,-2 -7,-2 -2,0 -6,0 -8,0l-2 1c-1,1 -1,1 -1,1 -1,0 -2,1 -3,1 -1,1 -2,2 -4,4 -1,2 -3,3 -3,6 -1,0 -1,0 -1,1 0,1 0,1 1,2zm30 -31c1,0 1,-1 2,-1l3 -3c1,0 1,-1 2,-1 1,2 2,3 3,4 0,0 0,0 1,1l1 1c-1,2 -4,4 -6,6 0,0 1,1 1,1 2,3 0,3 9,-4 2,-2 3,-3 5,-5 1,0 1,-1 2,-2 -1,-1 -2,-2 -2,-3 -2,1 -2,2 -3,3 -1,0 -1,0 -2,1 -2,1 -1,1 -4,-2 -1,-1 -2,-2 -2,-3 0,-1 2,-3 3,-3 0,-1 0,-1 1,-1 1,-2 1,-1 -1,-4 -1,-1 -2,1 -4,2l-3 3c0,0 -1,0 -1,1 -2,2 -3,3 -5,4 -1,1 -1,1 -2,1 0,1 -1,1 0,2 0,0 2,2 2,2zm-82 -44c1,0 0,0 1,0 0,1 0,2 -1,2 0,2 -5,2 -5,2 -1,-1 -1,-4 -1,-5 1,0 4,0 5,0 2,1 1,1 1,1zm-10 -4c0,1 1,17 2,19l0 0c0,1 1,1 2,0 1,0 1,0 2,0 0,-1 -1,-6 -1,-7 1,-1 1,-1 2,-1 1,1 1,2 2,3 1,0 1,1 2,2 2,4 2,2 6,2 0,-2 -6,-7 -5,-8 0,0 3,-1 3,-5 0,-2 -1,-3 -2,-4 -1,-1 -1,-2 -3,-2 -4,0 -7,1 -10,1zm-80 68c-1,0 -4,-1 -4,-1 0,0 0,0 0,0 0,0 0,-1 0,-1l1 -2c3,-5 5,-1 5,0 0,1 -2,3 -2,4zm4 0c2,0 5,0 8,0 0,0 1,0 1,0 0,-1 2,-3 2,-4 -2,0 -7,0 -9,0 0,-2 0,-2 -1,-4 -1,-1 -3,-2 -5,-3 -2,0 -4,2 -5,4 0,0 -1,1 -1,1 -1,2 -3,5 -3,7 1,0 1,0 1,0l1 1c2,1 3,2 4,2l5 2c0,1 1,1 2,1l3 2c1,1 1,1 2,-1 0,0 1,-1 1,-2 -1,-1 -4,-2 -6,-3 0,0 -1,0 -1,-1l1 -2zm88 163c2,0 2,3 0,4 -1,0 -5,0 -6,-1l1 -4 4 0c1,1 1,1 1,1zm-5 -8c1,-1 4,0 5,0 1,1 1,2 0,3 -1,1 -3,1 -4,0 -1,0 -1,0 -1,-1 0,-1 0,-2 0,-2zm7 5c2,0 3,-1 3,-3 2,-6 -7,-6 -11,-6 -1,0 -2,-1 -3,0l-1 19 7 0c2,0 5,0 6,-1 2,-1 3,-3 3,-5 -1,-3 -4,-2 -4,-4zm-1 -149c0,1 0,1 0,2 1,1 3,1 4,1 2,0 1,1 2,0 0,-2 0,-3 2,-4 0,0 2,1 2,2 0,0 0,0 0,1 0,0 0,1 0,1 -1,1 -2,1 -3,2 -1,0 -3,1 -3,2 0,1 6,-1 7,-2 1,-1 2,-4 3,-5 0,-6 0,-9 -5,-12l-3 -2c-2,0 -2,0 -4,1 -1,0 -1,1 -2,2 0,0 0,0 0,0 -2,1 -2,2 -4,4 -2,3 1,3 1,5 0,1 0,1 1,1 0,0 1,1 2,1zm34 -78l0 1 -2 -1 0 1c0,1 0,2 -1,4 0,1 -1,5 -2,6l-2 8c1,0 3,1 4,1 1,-1 1,-4 2,-6 0,-1 1,-2 1,-3l1 -4c0,0 0,0 0,1l1 4c1,1 1,2 1,2 0,1 1,2 1,3 0,1 1,5 1,5 1,1 5,2 6,2 0,-1 1,-4 1,-5l2 -8c0,0 0,-1 0,-1 1,-1 0,0 1,0 0,-1 0,-1 0,-1l1 -4c-1,0 -1,0 -2,0 -1,0 -1,-1 -2,-1 0,0 0,0 0,0l-3 11c-1,2 0,1 -1,2l-4 -14c0,-2 0,-2 -1,-2 -2,0 -3,0 -3,-1zm30 111c-1,0 -1,0 -1,0l0 0 0 0c0,1 -1,1 -1,1 0,1 0,1 -2,2 -1,0 -2,0 -3,0 0,0 -1,0 -3,2 0,0 0,1 -1,1 -1,1 -2,2 -3,3l0 0 -3 2c-1,0 -1,1 -1,1 0,0 0,0 0,0l2 2c1,1 1,1 2,2l0 0c0,1 1,1 2,2 1,1 3,0 4,-1 0,0 1,0 1,0 0,0 0,0 1,-1 0,0 0,0 0,0l6 -5c0,0 0,0 0,0l0 0c0,0 0,0 0,0 1,-1 1,-1 1,-1l0 0c0,0 1,-1 1,-1 0,-1 0,-1 0,-1 0,0 1,-1 1,-1 -1,-2 -2,-5 -3,-7zm-163 30c0,0 -1,1 -2,2 -1,0 -2,1 -3,1 -1,1 -5,3 -5,4 0,1 0,0 0,2l1 2c1,0 10,0 12,0 0,1 -1,1 -2,2l-4 2c-1,1 -1,1 -1,1 -3,2 -4,1 -3,4 1,0 1,1 1,2 1,0 4,-2 5,-3 0,0 0,0 0,0l10 -6c0,0 0,0 0,0l2 -2c0,-1 -1,-2 -1,-3 -2,-1 -11,0 -14,0 1,-2 0,-1 2,-2l4 -3c1,0 3,-2 4,-2 2,-1 2,-2 2,-2l0 0c0,0 0,0 0,0 -1,-1 -1,-3 -1,-3 -1,0 -18,0 -20,0 0,1 0,1 0,2 1,2 -1,2 5,2 1,0 7,-1 8,0zm167 -49c0,0 2,-1 3,-1 3,-1 6,0 10,0 1,-2 3,-3 5,-4 0,-2 -3,-4 -5,-5 -2,-2 -2,-3 -4,-1 -1,1 0,0 -2,1l-1 1c0,0 0,0 0,0 -2,1 -1,1 -3,2l0 0c0,0 0,0 0,1 -2,1 -2,0 -3,-1 -1,-1 -1,-1 -2,-1 -2,-1 -6,0 -7,2 -2,4 3,10 6,13l3 4c1,2 0,1 1,2 2,2 1,2 4,2 1,0 2,0 2,-2 0,0 0,0 -1,-1 0,0 0,0 0,0 -2,-1 -3,-3 -4,-4 0,-1 0,-2 -1,-3l0 -2c-1,-1 -1,-2 -1,-2 0,-1 0,-1 0,-1zm-131 41c0,1 1,1 2,2 1,2 0,1 1,3 0,1 1,0 2,0l4 -2c0,0 1,-1 1,-1 0,0 1,-1 2,-1l7 -5c1,0 2,-1 2,-1 1,-1 1,-1 1,-1l6 -4c2,-2 4,-1 2,-5 -1,-1 -1,-1 -1,-2 2,0 2,0 3,1 0,2 2,3 3,1 1,-2 1,-2 0,-4 -1,-2 -2,-2 -3,-2 0,-1 0,-1 0,-1 -1,0 -1,0 -2,0 0,1 0,1 0,1l0 0c-1,1 -2,1 -2,2l-6 4c-1,1 -8,5 -8,5l-8 6c0,0 -1,0 -1,1 -1,0 -1,0 -1,0l-4 3zm13 -120c0,1 0,1 0,1 1,2 1,1 1,2 0,2 2,7 2,9 -2,0 -3,-2 -4,-3 -1,-1 -1,-1 -2,-1l-2 -3c-3,-2 -2,-2 -4,-1 0,0 -1,1 -1,1l-2 1c-1,1 -1,1 0,2 1,2 0,0 1,1l0 2c1,1 2,3 3,4 0,1 0,1 0,1 2,2 1,1 2,3l3 4 3 -2c0,0 -1,-2 -1,-3l-4 -6c-1,-1 -2,-2 -2,-3 1,0 1,0 1,1 1,0 1,0 1,0 0,1 1,1 1,1 2,2 2,2 3,3l4 4c1,0 1,0 2,1 0,0 1,-1 1,-1 2,-1 1,-2 1,-4l-2 -9c0,-1 0,-1 0,-2 0,0 0,0 0,0 1,2 6,11 7,11 1,0 1,0 2,0 0,-1 0,-1 0,-1 1,0 1,0 1,0 0,-1 0,-1 0,-2 0,0 -1,0 -1,-1 0,0 0,-1 -1,-2l-5 -8c0,-1 -1,-2 -1,-2 0,-1 0,-1 -1,-2 -1,0 -1,0 -1,0 -1,1 -1,1 -2,1l-3 2 0 1zm107 82c1,0 2,0 2,0 0,-2 -3,-3 -2,-8 1,-1 0,-1 1,-2 0,-1 1,-2 2,-3 1,-1 2,-1 3,-1 3,0 5,0 6,2 1,0 5,-2 6,-3 1,-1 2,-1 2,-3 0,-5 -10,-7 -18,-5 -2,0 -3,1 -4,2 -1,1 -1,1 -2,1 0,1 -1,2 -2,3 0,2 0,3 0,5 0,2 1,6 3,8 0,1 0,1 1,1l2 3zm-28 -33c0,1 -1,3 -1,4l-1 3c0,2 -2,5 -3,6 0,2 0,2 1,3l0 1c0,0 0,0 0,0 0,1 0,1 1,2 0,0 0,0 0,1l0 0c0,0 0,1 0,2 1,3 1,7 5,7 3,0 6,-4 7,-5l0 -1c0,0 0,0 0,0 0,0 1,0 1,0 1,-2 1,-3 2,-5 1,-2 0,-4 -1,-7 0,-1 -2,-2 -2,-3 -1,-3 -2,-4 -5,-7 0,0 -1,0 -2,-1 0,0 -2,0 -2,0zm-124 138c0,-2 0,-5 3,-5 0,2 -1,2 -1,3 2,0 3,-1 6,-1 0,1 -1,2 -2,2 -2,1 -4,1 -6,1zm3 -11c1,0 1,1 2,1 0,1 1,1 1,2 0,1 -1,1 -2,1 0,0 -1,-1 -1,-1 0,-1 -1,-1 -1,-2 0,-1 0,-1 1,-1zm8 24c1,0 1,1 2,1 1,0 1,1 3,0 0,0 1,0 2,0 0,-2 -1,-4 -1,-5 -3,-5 -8,-1 -12,-3 0,0 -1,-1 -1,-1 1,-2 2,-1 4,-1 1,0 4,0 4,0 1,-1 1,-9 1,-10 0,-1 0,-1 0,-1 -1,0 -1,0 -1,-1 0,0 0,0 0,0 -2,-1 -2,-1 -2,-1 -1,-1 -1,0 -1,-1l-1 -1c0,0 0,0 -1,0 0,-1 -1,-1 -1,-2 -1,-1 -3,-2 -3,-3 -4,0 -15,7 -11,11 2,1 1,-1 3,2 1,2 3,5 4,6 1,1 2,3 4,4 1,2 6,5 8,6zm91 -95l8 7c0,-1 1,-1 1,-1 2,-1 3,-1 5,-1 1,1 4,1 8,0l0 0c1,0 3,-1 4,-1 0,0 1,0 1,0l0 0c0,0 1,0 1,0 -1,-1 -2,-3 -4,-5 0,-1 -1,-2 -2,-2 -1,-2 -1,-3 -1,-4l0 0c-1,0 -1,0 -1,-1l-2 -5c-1,0 -1,0 -2,0l0 0c-1,0 -2,1 -3,1 -1,0 -1,1 -2,1 -1,0 -2,0 -2,0 -1,1 -1,1 -2,1 0,0 0,0 -1,0 0,0 0,0 0,0 -2,1 -4,1 -6,2 0,0 -1,0 -1,0 0,0 -1,0 -1,0 0,1 0,2 1,3 0,2 0,4 0,4 0,1 0,1 1,1 0,0 0,0 0,0l0 0zm60 51c0,1 0,1 1,2 0,0 0,0 0,1 0,0 0,0 1,0 1,2 1,3 0,5 -2,4 -3,4 0,5 0,1 -1,1 -1,1l-5 4c0,0 0,1 0,0 0,0 0,1 0,1 0,1 0,1 1,2 1,2 3,0 3,0 0,-1 0,-1 -1,-2 -1,-1 0,-1 0,-2 1,1 3,2 5,2 0,-1 0,0 0,-2 0,0 -1,-1 -1,-2 2,0 3,1 4,2 -17,16 -40,26 -66,26 -26,0 -50,-10 -67,-27 0,0 0,-1 0,-1l3 0c3,-1 6,-3 8,-4 1,0 2,-1 3,-1l13 -8c0,0 0,0 1,-1l2 -2c3,-2 7,-6 9,-8 0,-1 0,-1 0,-1 1,-1 1,-1 1,-1 1,-1 1,-2 1,-3 2,-3 1,-3 0,-4l-1 -1c-5,-3 -5,-3 -11,-2 -1,0 -2,0 -2,0 -2,1 -2,0 -4,1 -2,1 -6,0 -9,2 -1,1 -1,1 -3,3l-4 3c-1,1 -2,1 -3,2l-5 3c0,1 0,1 -1,1l-3 2c-2,1 -3,2 -4,3l-3 1c-10,-14 -16,-32 -16,-51 0,-53 43,-95 95,-95 52,0 95,42 95,95 0,3 0,7 -1,11l0 0c0,1 -1,1 -1,2 -3,4 -4,6 -6,10 -1,1 -1,1 -1,1 -1,1 -1,2 -2,3 0,0 0,0 0,0l-2 3c0,0 0,1 0,1 -1,1 -1,1 -2,2l-3 6c-1,0 -1,0 -1,1 -1,0 -1,1 -2,2 0,1 0,1 -1,2 -1,0 -1,-1 -2,-1 0,0 0,-1 -1,-1 -1,1 -1,7 -1,9 -1,4 -1,6 1,8 0,0 2,1 3,2 -2,2 -4,3 -5,5 -1,-2 -2,-1 -2,-4 1,0 2,1 2,1 2,2 3,0 2,-3 -2,-1 -2,-2 -3,-1 -1,2 -1,2 -1,3 -1,1 -2,2 -4,3 0,-1 0,-2 1,-3 1,-1 1,-1 1,-1 1,-1 2,-4 2,-5 1,-2 1,-3 1,-5 1,-2 0,-4 0,-6 0,-1 1,-3 2,-4l2 -5c0,-1 1,-3 1,-5 -1,-2 -1,-3 -3,-4 -2,-2 -7,-1 -10,0l-3 2c-1,0 -2,1 -3,2 0,0 0,0 0,0 0,1 0,1 -1,2 0,1 1,4 1,5 1,3 5,5 6,6 1,1 2,1 2,2 2,2 1,2 -2,5zm15 8c0,-1 0,-2 0,-2 -1,-3 -2,-5 0,-8l11 -15c0,0 0,-1 1,-1 0,0 0,-1 0,-1 1,-1 2,-3 3,-4 0,-1 1,-2 2,-3 0,0 0,0 1,-1 -4,13 -10,25 -18,35zm-47 -81l-1 0c0,1 0,1 0,1 -1,1 -1,1 -1,1 0,1 -1,1 -1,2 -1,0 -1,1 -1,1 0,0 0,0 0,0 0,0 0,0 0,1 0,1 1,3 1,4 0,1 1,1 1,1l5 9 1 1 0 0c0,1 1,1 1,1 0,0 0,0 0,0 0,-1 0,-1 1,-1 0,0 1,0 1,-1 0,0 0,0 1,0 2,-1 4,-3 6,-4 0,0 1,0 1,0 2,-1 3,-2 4,-3l0 0c0,-1 0,-1 0,-1 0,0 0,0 0,-1 0,0 -1,-1 -1,-1 0,-1 0,-2 -1,-3 0,-1 0,-1 0,-2 0,-1 -1,-2 -1,-3l-1 -6c0,-3 -1,-4 -1,-6 -1,0 -1,-1 -1,-2l-6 7 0 0c-1,1 -2,1 -3,2 -1,1 -2,2 -3,2l-1 1zm14 -16l0 0 0 0 0 0zm0 0l0 0 0 0 0 0zm-73 57c0,0 0,0 0,0l0 -1c0,0 0,0 0,-1l1 -1c0,0 0,0 0,0l0 -3c1,-2 1,-4 1,-6 1,-1 0,-2 2,-2 6,0 12,2 17,1 6,-2 8,0 12,0 0,-1 -1,-1 -1,-1 -1,-1 -2,-2 -3,-2 -1,-1 -2,-3 -3,-3 -1,-1 -1,-1 -2,-2l-2 -2c-2,-2 -2,-2 -3,-2 -2,-2 -2,-3 -4,0 -2,2 -11,3 -15,5 -1,0 -1,0 -1,1 -1,0 -1,1 -2,2 -2,3 -2,5 -4,8 -2,3 0,1 -2,3 0,1 0,1 -1,1 -1,1 -5,4 -7,6 -1,1 -2,2 -3,4l0 1c-1,1 -2,2 -1,3 1,2 5,2 8,1 1,0 3,0 4,0l5 -2c1,0 1,0 1,0l4 -2c0,0 0,0 0,0l0 0c2,-2 2,-3 5,-5 3,-3 5,-5 9,-6 0,0 0,-1 1,-1 3,-2 15,-2 20,-3 -1,-1 -3,-2 -4,-2 -1,0 0,0 -1,0 -2,-1 -4,-1 -6,-1 -3,0 -3,0 -4,1 -2,0 -6,0 -9,0 -1,0 0,-1 -4,-1 -1,0 -3,0 -4,0 -1,2 -1,4 -1,6l0 5c-1,1 -2,3 -4,5 0,0 -1,1 -1,1l2 -5zm-5 -33c-2,0 -11,1 -12,0 0,0 0,-1 1,-2 0,-1 1,-2 1,-4 2,-3 6,-8 8,-11 0,-1 1,-1 1,-2 1,-1 0,0 1,-1 0,0 0,0 0,-1l4 -4c1,-2 1,-3 3,-4 0,-1 1,-3 3,-4l8 -10c1,-1 1,-1 2,-2l4 -4c1,0 1,-1 1,-2l-11 -3c-1,-1 -7,-3 -10,-2 -1,1 -3,2 -3,4 -1,1 -1,0 -1,1 0,3 1,5 1,7 0,3 1,2 -2,4l-10 7c-2,1 -1,0 -3,2 -3,3 -5,6 -5,10 0,1 1,2 1,6 1,1 1,1 1,2 0,2 -1,4 -1,6 0,2 0,1 0,2 0,2 -1,9 -1,11 1,2 1,2 1,3 1,1 3,4 6,3 2,-2 12,-9 12,-12zm51 -26c-2,-1 -4,-2 -6,0 0,0 0,0 0,0 0,1 0,1 0,1 -1,1 -1,3 -2,4 -1,0 -7,4 -8,4 -1,1 -3,1 -4,0 -1,-1 0,-2 0,-4 -2,-1 -3,0 -4,-3 -1,-1 -1,0 -2,-1 -1,-1 0,-1 -1,-3 0,-1 -2,0 -2,-3 0,-1 2,-3 2,-4 0,0 0,0 1,-1 0,-1 4,-4 5,-5l1 -1c3,-1 6,-1 9,-2 3,-1 7,-1 7,-2 0,-1 -2,-1 -3,-2 -1,0 -1,-1 0,-3 0,-1 1,-2 2,-2 4,-1 2,3 6,1 2,-1 3,-1 5,0 5,1 3,1 5,2 1,1 2,1 0,2l-3 3c0,0 1,1 2,1 0,0 1,1 1,1 0,0 1,0 1,0 2,2 2,2 3,4l2 0 3 -5c0,0 1,0 1,-1 1,-1 2,-2 3,-3 2,-3 4,-7 1,-9l-7 -4c-2,0 -3,-1 -6,-1 -1,0 -1,0 -3,0 -2,0 -3,0 -4,0 -3,0 -4,0 -7,1 -1,1 -2,1 -4,2 -2,1 -4,2 -7,3l0 1c-3,2 -6,3 -9,5 -1,0 -2,1 -3,1 -1,1 -2,2 -3,3l-7 7c0,0 0,1 -1,1 0,1 -1,2 -2,2 0,1 -1,2 -2,3 -1,1 -10,13 -11,14 -1,1 -1,2 -2,3 0,0 0,0 -1,1 0,0 0,1 -1,1 0,1 -1,2 -1,3l-2 3c-1,1 -1,3 -2,4 0,0 -1,1 -1,1 0,1 0,1 0,2 0,1 0,0 1,0 1,0 3,0 4,0 8,0 4,-2 8,-2 1,0 1,0 2,0 1,-1 2,-1 3,-2 0,0 0,-1 1,-1 1,-2 2,-2 4,-2 2,0 2,2 4,2 2,0 3,-1 5,-2 0,0 1,0 2,-1l7 -4c1,0 1,-1 2,-1l13 -8c1,-1 2,-2 3,-2 1,-1 1,-1 2,-2zm1 83c1,2 1,3 1,5 0,8 -1,5 -4,10 -1,1 -1,1 -2,1 -2,-2 1,-2 3,-7 1,-2 1,-3 1,-5 -1,-3 -2,-4 1,-4zm-28 4l-2 0c0,0 -1,-3 -2,-4 -1,1 -1,2 -1,5 0,0 -1,1 -1,1 -1,-1 0,-8 0,-9 1,0 2,-1 3,-1 0,1 1,4 2,4 0,0 0,0 1,-1l0 -1c1,-1 1,-2 2,-1 0,1 0,3 -1,4 0,1 0,1 -1,1 0,1 0,2 0,2zm-20 10c0,-3 3,-8 5,-11 0,0 6,-7 7,-8 1,-2 1,-3 4,-2 0,1 0,1 -1,1l0 1c0,0 0,1 0,1 -2,1 -2,1 -3,2 -1,2 -1,2 -2,3 -2,2 -3,3 -4,5 0,1 0,0 -1,1 0,1 0,1 -1,2 -1,1 -1,2 -2,3 0,1 0,3 -2,2z"/>
 </g>
</svg>
